<svg width="26" height="20" viewBox="0 0 26 20" fill="none" xmlns="http://www.w3.org/2000/svg">
<path d="M24.3054 17.5H1.69428C1.12695 17.5 0.666504 17.948 0.666504 18.5C0.666504 19.052 1.12695 19.5 1.69428 19.5H24.3054C24.8727 19.5 25.3332 19.052 25.3332 18.5C25.3332 17.948 24.8727 17.5 24.3054 17.5Z" fill="black"/>
<path d="M24.3335 0.166504H10.3335C9.7815 0.166504 9.3335 0.614504 9.3335 1.1665C9.3335 1.7185 9.7815 2.1665 10.3335 2.1665H24.3335C24.8855 2.1665 25.3335 1.7185 25.3335 1.1665C25.3335 0.614504 24.8855 0.166504 24.3335 0.166504Z" fill="black"/>
<path d="M24.3054 6.1665H1.69428C1.12695 6.1665 0.666504 6.6145 0.666504 7.1665C0.666504 7.7185 1.12695 8.1665 1.69428 8.1665H24.3054C24.8727 8.1665 25.3332 7.7185 25.3332 7.1665C25.3332 6.6145 24.8727 6.1665 24.3054 6.1665Z" fill="black"/>
<path d="M24.3335 12.1665H10.3335C9.7815 12.1665 9.3335 12.6145 9.3335 13.1665C9.3335 13.7185 9.7815 14.1665 10.3335 14.1665H24.3335C24.8855 14.1665 25.3335 13.7185 25.3335 13.1665C25.3335 12.6145 24.8855 12.1665 24.3335 12.1665Z" fill="black"/>
</svg>
